<svg width="958" height="923" viewBox="0 0 958 923" fill="none" xmlns="http://www.w3.org/2000/svg">
<path d="M259.32 558.06C271.315 557.18 288.907 547.828 294.497 557.152C302.69 570.417 289.632 590.922 279.577 604.873C277.915 607.002 276.021 609.034 274.018 610.987C273.352 611.638 272.672 612.28 271.986 612.913C270.135 616.245 267.25 617.018 264.752 619.233C238.788 626.19 208.006 626.708 194.665 651.927C185.831 665.116 185.473 686.856 202.989 694.531C222.721 704.703 245.8 698.519 259.631 680.899C269.521 665.881 277.195 648.365 294.376 641.393C295.415 640.98 296.482 640.575 297.569 640.185C317.138 633.145 343.684 630.211 353.001 650.692C354.172 655.06 352.212 660.851 351.819 665.93C351.425 671.009 352.595 675.377 360.023 676.897C376.214 677.489 395.635 669.193 404.497 679.187C415.187 690.236 400.97 706.414 398.974 722.776C398.351 725.725 397.6 728.75 396.79 731.79C395.979 734.829 395.11 737.883 394.247 740.888C390.793 752.909 387.457 764.725 388.537 774.578C389.201 781.421 392.487 789.318 397.696 794.708C402.905 800.099 410.036 802.984 418.389 799.804C419.219 799.503 420.034 799.147 420.831 798.734C426.495 795.161 431.171 789.36 434.548 782.882C436.609 778.502 437.725 773.581 438.347 768.408C438.551 766.679 438.696 764.914 438.801 763.131C438.853 762.239 438.883 761.355 438.906 760.47C438.212 748.529 437.065 735.753 437.308 722.988C437.331 721.827 437.364 720.668 437.404 719.519C437.794 715.63 438.002 711.169 438.192 706.697C438.527 702.252 439.219 697.128 441.134 692.107C447.204 677.019 468.351 663.623 479.711 671.401C492.9 680.235 477.344 702.956 479.484 722.481C480.257 725.365 481.416 729.693 482.881 732.113C483.416 733.094 483.909 734.382 484.452 735.454C492.053 750.461 502.513 760.468 520.983 756.195C524.233 755.324 527.12 753.898 529.649 752.028C530.493 751.405 531.297 750.731 532.062 750.013C532.889 749.219 533.662 748.397 534.382 747.55C535.101 746.703 535.738 745.852 536.322 744.979C539.526 738.491 541.109 730.999 541.203 723.344C541.215 722.253 541.194 721.172 541.143 720.093C541.405 699.705 526.67 685.101 513.764 671.553C537.54 685.28 567.756 694.19 581.188 721.912C581.707 722.878 582.207 723.856 582.691 724.845C589.948 739.676 593.276 757.025 592.442 776.095C592.683 777.208 592.947 778.293 593.233 779.419C596.959 794.084 605.102 804.72 625.026 804.071C647.565 804.044 660.435 778.843 651.829 758.625C651.583 758.047 651.319 757.474 651.038 756.905C645.39 749.921 638.135 741.782 631.634 733.087C630.912 732.121 630.2 731.148 629.498 730.169C616.647 715.102 607.578 692.796 622.182 678.061C635.73 665.154 650.955 687.357 662.702 696.577C670.018 700.801 677.333 705.025 685.495 702.914C686.578 702.731 687.677 702.456 688.792 702.081C691.023 701.332 693.321 700.179 695.699 698.558C707.581 690.455 706.702 680.022 703.091 668.927C702.73 667.817 702.343 666.702 701.941 665.581C697.472 653.249 689.949 636.712 699.394 622.976C700.125 622.179 700.902 621.482 701.719 620.881C715.63 610.644 741.462 627.718 753.283 643.041C754.102 643.965 754.922 644.889 755.727 645.816C758.141 648.594 760.389 651.388 762.441 654.085C762.879 654.565 763.331 655.041 763.784 655.517C786.205 679.361 812.254 701.285 834.385 676.79C857.506 649.53 799.526 625.278 770.391 621.382C766.727 620.804 763.04 619.451 759.55 617.503C756.743 616.029 753.905 614.033 751.215 611.668C748.525 609.301 745.997 606.562 743.798 603.603C739.507 597.861 734.384 591.148 730.913 584.365C729.184 580.971 727.853 577.563 727.244 574.249C725.715 568.429 727.56 563.658 730.957 560.759C734.36 557.822 739.329 556.806 744.1 558.459C747.777 558.505 751.985 559.038 755.987 559.085C759.988 559.132 763.897 558.835 767.345 557.625C770.667 556.925 774.026 556.306 777.295 555.526C783.849 553.962 790.058 551.749 794.907 546.939C798.692 543.584 801.308 535.863 801.21 526.611C799.848 521.643 796.85 517.607 793.215 513.968C792.5 513.145 791.735 512.368 790.906 511.638C790.09 510.903 789.224 510.212 788.308 509.558C783.002 505.104 776.072 502.323 769.688 500.073C768.632 499.595 767.604 499.107 766.605 498.608C763.591 497.11 760.809 495.497 758.518 493.584C757.745 492.949 757.039 492.277 756.4 491.564C755.564 490.463 754.903 489.383 754.418 488.321C753.918 487.264 753.579 486.228 753.385 485.217C754.56 472.752 766.311 463.181 778.355 460.759C779.44 460.541 780.541 460.379 781.628 460.283C813.445 462.935 861.384 491.832 873.641 445.26C878.044 427.074 870.804 405.824 853.005 402.863C825.391 397.894 803.679 420.718 777.514 419.889C776.404 419.841 775.299 419.754 774.197 419.623C768.018 418.893 761.985 416.801 756.196 412.74C755.362 412.162 754.546 411.541 753.757 410.906C746.905 405.01 738.43 396.459 744.483 390.199C748.037 386.155 756.409 388.549 762.625 388.382C763.576 388.295 764.534 388.177 765.549 388.041C776.804 386.541 787.579 380.539 793.236 368.937C793.732 367.903 794.177 366.85 794.582 365.767C799.043 353.857 798.284 340.004 787.314 330.796C775.803 321.935 765.281 322.709 755.857 328.156C754.92 328.699 754.074 329.233 753.253 329.804C739.223 335.952 731.087 369.052 725.779 355.014C721.528 339.148 711.016 317.228 721.184 298.92C721.621 297.897 722.094 296.889 722.6 295.894C727.592 285.968 735.29 277.594 743.185 269.958C766.057 251.462 794.519 242.289 810.404 217.046C810.924 216.16 811.424 215.256 811.874 214.341C815.593 206.987 817.302 198.59 816.195 188.691C815.817 187.741 815.408 186.794 814.942 185.862C813.106 182.126 810.578 178.575 807.521 175.419C804.408 172.973 800.945 170.836 797.298 169.227C796.386 168.825 795.453 168.458 794.528 168.123C786.369 166.693 779.039 167.498 772.425 169.988C771.484 170.342 770.553 170.732 769.645 171.153C736.652 187.014 732.688 226.225 714.533 253.669C713.905 254.617 713.258 255.549 712.592 256.468C703.748 272.795 675.003 286.681 666.321 265.818C659.468 246.01 681.849 219.915 659.129 204.358C640.453 192.357 621.522 208.251 605.759 218.659C597.492 222.42 589.224 226.182 579.816 225.089C578.676 224.872 577.526 224.581 576.367 224.208C575.21 223.835 574.042 223.379 572.867 222.834C565.905 219.051 561.389 214.783 558.747 210.196C558.218 209.279 557.765 208.349 557.382 207.406C557.009 206.647 556.705 205.883 556.46 205.115C555.143 202.847 555.813 199.576 556.482 196.304C564.723 169.36 613.378 154.777 587.848 122.968C571.954 104.036 538.109 116.197 530.538 139.87C525.079 159.885 536.26 178.533 529.106 198.643C528.741 199.682 528.34 200.725 527.902 201.767C527.714 202.362 527.527 202.958 527.34 203.553C523.42 216.081 519.631 228.982 508.523 230.799C495.541 234.278 486.472 211.972 481.505 197.683C479.42 193.65 477.323 189.092 474.427 185.755C471.527 182.437 467.92 179.893 462.967 178.879C459.399 178.665 455.578 179.689 452.049 181.804C450.873 182.509 449.729 183.337 448.637 184.279C448.092 184.749 447.56 185.251 447.043 185.779C445.848 187.298 443.35 189.514 442.294 191.343C441.059 204.042 448.865 215.864 444.358 227.894C435.345 251.953 403.197 235.831 394.618 221.124C383.437 202.476 395.335 177.643 382.712 159.382C370.475 142.562 342.579 142.307 327.588 155.6C315.096 166.677 312.136 184.476 319.272 199.57C331.226 221.103 358.453 224.63 373.188 239.234C390.139 256.336 353.125 273.984 334.006 270.952C333.107 270.74 332.213 270.5 331.324 270.237C316.859 262.498 297.049 258.443 291.24 271.703C290.453 273.863 289.95 276.047 289.675 278.241C289.538 279.339 289.457 280.438 289.428 281.541C290.921 301.474 309.031 322.903 296.642 340.137C273.591 369.503 254.577 315.85 232.629 303.179C216.555 295.118 198.577 303.027 190.129 317.659C182.737 330.461 184.104 347.101 197.293 355.935C204.732 360.605 213.116 362.239 221.543 363.195C222.747 363.333 223.952 363.456 225.155 363.573C244.149 363.478 273.591 369.503 268.518 390.961C264.785 405.875 240.546 407.732 237.868 420.817C230.015 449.204 285.835 472.897 258.245 503.961C257.527 504.639 256.771 505.29 255.981 505.913C252.032 509.022 247.23 511.42 241.951 513.03C241.174 513.516 240.396 514.02 239.623 514.536C237.303 516.09 235.038 517.767 232.91 519.654C227.819 526.865 228.523 536.039 232.957 543.725C235.16 547.578 238.253 551.102 242.044 553.788C245.834 556.474 250.511 558.273 256.508 558.482C257.385 558.379 258.323 558.239 259.32 558.06Z" fill="#364EA9"/>
<path d="M314.291 693.961C328.613 690.244 345.847 702.632 342.499 718.989C339.435 730.632 328.386 741.323 315.3 738.645C308.757 737.306 302.884 732.696 299.896 727.313C296.134 719.044 297.473 712.502 300.69 704.534C303.565 699.557 308.325 695.638 314.291 693.961Z" fill="#364EA9"/>
<path d="M172.19 785.407C179.926 783.335 187.878 787.925 189.951 795.662C192.024 803.399 187.433 811.35 179.697 813.423C171.96 815.496 164.009 810.905 161.936 803.169C159.863 795.432 164.453 787.481 172.19 785.407Z" fill="#364EA9"/>
<path d="M276.706 822.701C284.215 807.268 301.808 797.917 319.89 796.163C327.489 795.673 332.693 803.555 332.796 809.711C336.199 839.72 313.148 869.086 284.968 873.545C265.83 877.127 260.315 850.777 268.107 836.492C270.139 831.987 272.998 827.336 276.706 822.701Z" fill="#364EA9"/>
<path d="M142.94 502.618C147.19 501.479 151.56 504.001 152.699 508.252C153.837 512.502 151.315 516.871 147.064 518.01C142.813 519.149 138.445 516.626 137.306 512.377C136.167 508.126 138.689 503.757 142.94 502.618Z" fill="#364EA9"/>
<path d="M232.975 191.844C239.806 191.489 247.405 190.999 253.278 195.609C262.81 202.331 265.232 217.142 258.51 226.673C250.732 238.034 237.363 240.07 226.39 233.734C216.858 227.012 211.551 212.974 219.272 202.294C222.15 197.307 226.944 193.428 232.975 191.844Z" fill="#364EA9"/>
<path d="M124.648 250.637C127.427 250.975 131.754 249.816 135.026 250.485C145.226 253.936 150.147 266.531 144.868 275.676C138.532 286.65 125.163 288.686 116.688 280.135C110.428 274.082 109.938 266.483 113.924 258.787C116.177 254.892 119.927 251.867 124.648 250.637Z" fill="#364EA9"/>
<path d="M707.057 732.849C713.922 731.009 720.978 735.083 722.817 741.948C724.657 748.813 720.583 755.868 713.718 757.708C706.854 759.547 699.798 755.474 697.958 748.609C696.119 741.744 700.193 734.688 707.057 732.849Z" fill="#364EA9"/>
<path d="M902.025 680.607C914.978 677.136 928.292 684.819 931.761 697.767C935.231 710.716 927.542 724.026 914.589 727.497C891.877 732.569 864.725 712.016 870.467 687.287C872.193 682.187 877.19 677.756 882.892 677.802C886.434 677.464 891.583 677.755 902.025 680.607Z" fill="#364EA9"/>
<path d="M835.342 565.256C840.823 563.787 846.473 567.044 847.945 572.536C849.416 578.028 846.152 583.674 840.671 585.143C835.175 586.615 829.525 583.358 828.053 577.865C826.582 572.374 829.846 566.728 835.342 565.256Z" fill="#364EA9"/>
<path d="M828.156 327.264C833.522 325.826 839.029 329.01 840.466 334.373C841.903 339.735 838.726 345.247 833.36 346.685C827.994 348.123 822.487 344.937 821.05 339.576C819.613 334.213 822.791 328.702 828.156 327.264Z" fill="#364EA9"/>
<path d="M697.706 113.272C712.209 108.197 726.84 116.645 734.646 128.467C746.987 151.443 724.991 178.981 699.593 176.51C686.894 175.275 675.534 167.497 673.498 154.128C671.462 140.76 673.753 126.232 686.7 119.217C689.965 116.52 693.682 114.463 697.706 113.272Z" fill="#364EA9"/>
<path d="M484.384 121.648C495.119 123.078 499.371 138.945 492.931 143.762C486.492 148.58 482.061 143.583 480.159 136.327C478.369 129.347 480.26 122.777 484.384 121.648Z" fill="#364EA9"/>
<path d="M421.994 92.4683C427.569 90.9436 433.285 94.2709 434.758 99.9134C436.231 105.554 432.901 111.399 427.321 112.949C421.742 114.502 416.03 111.147 414.56 105.477C413.092 99.8084 416.418 93.9918 421.994 92.4683Z" fill="#364EA9"/>
<path d="M201.499 436.236C206.19 434.979 211.011 437.764 212.268 442.455C213.525 447.146 210.742 451.967 206.051 453.224C201.36 454.481 196.538 451.698 195.281 447.007C194.024 442.316 196.808 437.493 201.499 436.236Z" fill="#364EA9"/>
<path d="M198.166 559.692C202.857 558.435 207.678 561.219 208.935 565.91C210.192 570.6 207.408 575.422 202.717 576.678C198.026 577.935 193.204 575.152 191.947 570.461C190.69 565.771 193.475 560.949 198.166 559.692Z" fill="#364EA9"/>
<path d="M478.637 800.01C491.983 797.978 506.228 804.983 507.208 820.18C507.029 831.05 499.92 839.139 490.209 843.287C481.555 845.606 473.183 843.211 466.923 837.158C460.277 829.663 458.627 817.737 465.552 810.285C468.33 805.482 472.913 801.675 478.637 800.01Z" fill="#364EA9"/>
<path d="M79.1596 379.597C88.2331 375.882 99.4898 377.503 107.579 384.612C117.496 392.777 122.417 405.372 119.739 418.458C117.345 426.829 110.905 431.647 104.466 436.464C89.3723 443.601 71.5729 440.64 61.5516 426.319C51.5304 411.998 55.9335 393.812 68.377 384.764C71.4787 382.412 75.1104 380.624 79.1596 379.597Z" fill="#364EA9"/>
</svg>
