<svg width="1280" height="488" viewBox="0 0 1280 488" fill="none" xmlns="http://www.w3.org/2000/svg">
<path d="M-2.17471 74.1219C159.099 35.2996 298.422 74.4979 415.793 191.717C533.165 308.936 672.487 348.134 833.761 309.312C995.034 270.489 1134.36 309.688 1251.73 426.907" stroke="#155AA8" stroke-opacity="0.99" stroke-width="55"/>
<mask id="mask0_99_215" style="mask-type:alpha" maskUnits="userSpaceOnUse" x="469" y="168" width="629" height="270">
<rect x="495.978" y="168.944" width="607.365" height="185.48" transform="rotate(8.02265 495.978 168.944)" fill="#D9D9D9" stroke="#85B9F3"/>
</mask>
<g mask="url(#mask0_99_215)">
<path d="M-2.23135 74.5253C159.042 35.7029 298.365 74.9012 415.736 192.12C533.108 309.339 672.431 348.537 833.704 309.715C994.978 270.893 1134.3 310.091 1251.67 427.31" stroke="#85B9F3" stroke-width="55"/>
</g>
<mask id="mask1_99_215" style="mask-type:alpha" maskUnits="userSpaceOnUse" x="126" y="20" width="211" height="144">
<rect x="142.649" y="20.5796" width="196.253" height="116.894" transform="rotate(8.02265 142.649 20.5796)" fill="#D9D9D9"/>
</mask>
<g mask="url(#mask1_99_215)">
<path d="M-2.21377 74.3993C159.06 35.5769 298.382 74.7752 415.754 191.994C533.126 309.213 672.448 348.411 833.722 309.589C994.995 270.767 1134.32 309.965 1251.69 427.184" stroke="#85B9F3" stroke-width="55"/>
</g>
</svg>
