<svg width="2323" height="881" viewBox="0 0 2323 881" fill="none" xmlns="http://www.w3.org/2000/svg">
<mask id="mask0_108_261" style="mask-type:alpha" maskUnits="userSpaceOnUse" x="0" y="0" width="2323" height="881">
<rect x="0.418213" y="0.787598" width="2321.65" height="879.992" fill="#D9D9D9"/>
</mask>
<g mask="url(#mask0_108_261)">
<mask id="mask1_108_261" style="mask-type:alpha" maskUnits="userSpaceOnUse" x="-226" y="-632" width="2594" height="1667">
<rect x="-225.785" y="199.755" width="2436.15" height="887.999" transform="rotate(-19.95 -225.785 199.755)" fill="#D9D9D9"/>
</mask>
<g mask="url(#mask1_108_261)">
<path d="M26.5644 857.063C1575.88 -634.574 -1126.43 318.122 835.803 498.123C2968.67 604.471 2755.04 -1371.6 2357.17 -621.483" stroke="#155AA8" stroke-width="55"/>
</g>
<mask id="mask2_108_261" style="mask-type:alpha" maskUnits="userSpaceOnUse" x="-226" y="-632" width="2594" height="1667">
<rect x="-225.785" y="199.755" width="2436.15" height="887.999" transform="rotate(-19.95 -225.785 199.755)" fill="#D9D9D9"/>
</mask>
<g mask="url(#mask2_108_261)">
<path d="M26.5644 857.063C1575.88 -634.574 -1126.43 318.122 835.803 498.123C2968.67 604.471 2755.04 -1371.6 2357.17 -621.483" stroke="#155AA8" stroke-width="55"/>
</g>
</g>
</svg>
