<svg width="859" height="793" viewBox="0 0 859 793" fill="none" xmlns="http://www.w3.org/2000/svg">
<path d="M247.872 259.869C245.29 293.897 279.615 311.652 309.527 306.336C310.04 306.509 310.543 306.675 311.166 306.958C313.657 308.089 316.115 309.338 318.515 310.755C327.936 316.933 318.84 329.187 312.41 335.19C310.408 336.466 308.192 337.542 305.924 338.312C303.303 340.601 300.544 342.38 297.685 343.716C294.8 345.068 291.641 346.092 288.435 346.735C283.887 348.143 279.312 348.859 274.708 349.079C274.135 349.103 273.558 349.124 272.984 349.131C254.856 346.132 237.95 339.281 219.307 340.218C218.579 340.183 217.855 340.135 217.131 340.101C200.461 339.345 184.888 343.518 174.241 360.495C172.764 362.768 171.493 365.175 170.465 367.691C169.43 370.219 168.646 372.845 168.128 375.58C168.012 376.282 167.914 377.011 167.834 377.766C167.762 378.509 167.714 379.267 167.686 380.051C167.592 382.983 168.445 385.647 170.022 388.005C170.337 388.479 170.681 388.939 171.053 389.385C173.213 391.556 175.422 393.447 177.657 395.107C179.893 396.767 182.179 398.164 184.482 399.355C188.508 401.387 192.556 402.677 196.626 403.349C197.303 403.463 197.987 403.55 198.664 403.633C227.496 407.977 254.738 396.255 278.613 377.584C280.072 376.163 282.694 374.182 285.311 373.83C285.888 373.594 286.466 373.358 287.04 373.135C288.773 372.442 290.51 371.782 292.249 371.154C294.955 370.068 297.679 369.054 300.441 368.108C303.056 366.139 305.64 367.03 308.863 367.259C309.634 367.319 310.394 367.373 311.129 367.443C324.313 368.619 322.977 378.487 314.326 392.907C313.982 393.478 313.627 394.058 313.253 394.658C311.741 398.773 308.821 401.614 305.901 404.454C300.036 411.584 292.831 417.031 285.768 422.76C285.225 423.202 284.682 423.643 284.143 424.086C280.241 426.591 276.669 429.362 273.37 432.353C272.895 432.787 272.433 433.214 271.969 433.654C246.274 445.408 214.616 464.265 225.096 497.828C229.496 512.87 244.117 517.971 258.86 514.427C268.702 511.103 276.258 506.028 282.697 498.63C291.501 487.224 291.702 472.821 299.949 461.663C300.293 461.169 300.636 460.674 300.976 460.178C304.025 455.733 306.9 451.265 309.642 446.937C310.074 446.385 310.509 445.836 310.945 445.287C318.383 435.941 326.396 427.342 336.831 421.019C337.363 420.648 337.886 420.288 338.4 419.939C344.09 416.049 348.196 413.462 349.926 412.814C352.364 411.897 354.902 411.237 356.994 410.659C367.882 407.076 387.665 413.972 384.324 426.315C381.888 436.07 371.148 441.971 364.206 450.65C362.603 452.865 360.495 455.589 359.237 457.88C357.984 460.174 356.997 462.484 356.424 464.817C350.646 486.915 362.104 512.144 381.369 514.998C407.73 518.795 418.779 497.384 420.514 473.397C420.631 471.679 420.623 469.797 420.572 467.92C420.555 467.294 420.534 466.666 420.508 466.05C421.284 455.321 415.345 447.458 412.993 437.786C412.889 437.203 412.816 436.621 412.779 436.031C412.738 435.453 412.735 434.866 412.767 434.284C412.448 428.111 416.828 423.85 422.028 422.772C424.906 422.817 430.068 424.612 430.325 426.639C431.356 430.252 432.427 434.057 433.569 437.934C441.585 465.055 453.392 495.336 482.529 484.399C489.189 481.901 493.826 474.833 496.108 466.219C496.868 463.348 497.364 460.309 497.589 457.206C498.859 438.787 491.979 424.037 484.611 407.466C482.48 403.157 485.325 395.562 486.48 396.229C513.223 407.05 539.411 419.814 563.65 435.194C567.691 437.758 571.837 440.444 575.608 443.114C609.057 463.919 603.508 471.493 635.814 496.241C639.432 498.577 643.077 500.743 646.777 502.74C654.186 506.71 661.966 510.248 670.305 513.137C683.186 517.495 704.554 509.817 704.471 491.294C704.033 470.719 694.034 458.171 679.945 449.051C676.424 446.772 672.207 444.692 668.277 442.777C627.508 429.923 622.926 431.897 583.611 414.618C579.913 412.976 576.227 411.294 572.547 409.585C554.171 400.992 536.042 391.526 517.8 381.98C509.051 378.468 504.17 360.254 511.277 361.278C535.574 364.529 565.644 371.112 584.871 350.097C586.53 347.929 587.864 345.42 588.797 342.572C589.736 339.711 590.272 336.511 590.353 332.924C591.652 301.542 546.471 298.32 520.61 314.382C519.15 315.802 513.125 313.709 512.606 309.668C509.446 288.306 535.625 290.688 548.599 281.874C548.965 281.67 549.33 281.465 549.691 281.258C571.099 268.984 585.915 249.425 578.289 232.536C567.388 208.475 528.209 229.533 510.866 254.362C508.934 257.48 504.848 260.417 500.171 261.951C499.505 262.167 498.823 262.358 498.14 262.518C493.644 264.464 489.343 262.966 485.042 261.468C478.461 258.208 481.724 251.624 485.805 248.222C495.982 241.165 505.305 233.8 510.362 222.063C515.762 206.582 513.464 185.517 498.88 177.544C486.281 172.179 471.838 174.864 459.9 184.199C445.335 195.528 442.222 212.76 443.139 229.486C443.659 233.527 441.864 238.68 438.979 238.646C406.475 235.03 423.899 204.444 432.881 186.736C432.959 186.057 433.005 185.375 433.025 184.679C433.063 183.285 432.973 181.862 432.742 180.39C432.462 177.102 432.048 173.907 431.471 170.834C428.02 152.383 418.705 138.291 395.537 136.954C373.465 135.912 359.753 164.253 367.572 187.751C367.693 188.128 367.825 188.497 367.959 188.867C369.305 191.8 370.975 194.35 372.859 196.669C374.742 198.988 376.84 201.077 379.046 203.074C380.512 204.413 382.024 205.717 383.555 207.017C385.08 208.328 386.625 209.636 388.145 211.006C389.67 212.364 391.17 213.784 392.621 215.299C393.006 215.845 393.362 216.404 393.679 216.988C396.1 221.08 397.181 226.277 393.956 229.988C392.059 231.972 389.742 233.944 387.225 235.678C381.809 239.756 374.635 242.158 368.331 241.813C366.218 241.686 364.184 241.251 362.228 240.399C360.323 239.592 358.498 238.43 357.061 237.215C337.253 220.529 339.114 190.303 325.513 169.78C323.707 167.583 321.835 164.962 319.864 162.67C304.103 144.302 283.164 130.889 265.05 150.961C251.795 165.247 257.504 183.262 268.71 198.985C270.311 201.233 272.028 203.425 273.812 205.564C293.973 225.687 324.155 230.426 344.934 251.583C345.894 253.508 346.456 255.711 346.903 257.924C347.452 260.535 347.548 263.423 347.182 266.276C346.817 269.129 345.991 271.947 344.691 274.43C343.513 276.336 341.945 278.156 339.975 279.651C335.176 283.039 327.646 284.927 322.396 282.604C320.648 281.826 319.154 280.578 318.097 278.767C309.353 265.112 299.191 249.992 281.411 248.287C278.441 247.65 275.367 247.307 272.15 247.313C263.212 248.049 255.093 251.968 248.961 258.697C248.582 259.094 248.219 259.485 247.872 259.869Z" fill="#F25735"/>
<path d="M205.185 436.603C212.385 439.113 216.183 446.988 213.678 454.178C211.166 461.38 203.294 465.18 196.093 462.67C188.894 460.161 185.096 452.287 187.608 445.085C190.113 437.894 197.985 434.094 205.185 436.603Z" fill="#F25735"/>
<path d="M147.667 341.719C158.948 344.522 170.869 357.363 163.788 369.363C154.087 383.346 131.268 387.923 119.085 373.068C113.145 365.205 114.165 353.985 120.604 346.586C125.283 341.467 131.344 340.686 137.407 340.045C140.704 340.024 144.184 340.555 147.667 341.719Z" fill="#F25735"/>
<path d="M237.118 304.683C241.569 306.237 243.921 311.105 242.371 315.552C240.814 320.011 235.947 322.359 231.496 320.805C227.044 319.251 224.692 314.383 226.242 309.935C227.8 305.477 232.666 303.129 237.118 304.683Z" fill="#F25735"/>
<path d="M243.589 224.418C247.38 225.745 249.384 229.888 248.06 233.682C246.737 237.475 242.587 239.482 238.797 238.156C235.006 236.829 233.002 232.686 234.325 228.893C235.649 225.099 239.791 223.103 243.589 224.418Z" fill="#F25735"/>
<path d="M210.897 265.711C217.93 266.693 221.846 274.819 215.151 280.191C207.887 284.419 198.949 285.156 192.106 279.88C190.688 278.416 190.126 277.259 189.869 275.233C189.948 269.474 194.89 266.369 199.732 265.469C203.297 264.649 207.317 264.676 210.897 265.711Z" fill="#F25735"/>
<path d="M226.32 93.497C240.289 100.592 247.268 116.538 249.089 130.676C249.01 136.434 246.909 142.457 241.41 144.394C221.469 149.016 195.148 135.975 194.928 113.355C195.062 111.292 195.478 109.208 196.199 107.145C196.914 105.094 197.884 103.206 199.061 101.5C200.239 99.7933 201.625 98.2684 203.167 96.9572C207.266 92.9345 213.626 91.2948 220.035 91.7159C222.113 91.9762 224.22 92.5615 226.32 93.497Z" fill="#F25735"/>
<path d="M351.068 121.95C355.85 123.617 358.372 128.845 356.704 133.625C355.037 138.406 349.81 140.93 345.029 139.263C340.249 137.596 337.726 132.368 339.393 127.587C341.061 122.808 346.288 120.283 351.068 121.95Z" fill="#F25735"/>
<path d="M429.37 100.477C435.359 105.213 437.559 112.733 436.012 119.924C434.218 125.077 428.975 129.04 423.812 127.244C412.937 122.475 410.297 105.154 420.881 99.6251C423.481 98.5088 426.522 98.6788 429.37 100.477Z" fill="#F25735"/>
<path d="M459.836 150.475C464.544 152.116 467.03 157.261 465.39 161.965C463.744 166.68 458.6 169.161 453.892 167.52C449.183 165.879 446.697 160.734 448.337 156.03C449.984 151.315 455.128 148.835 459.836 150.475Z" fill="#F25735"/>
<path d="M328.825 464.817C336.095 467.351 339.928 475.307 337.393 482.573C334.859 489.84 326.914 493.674 319.643 491.139C312.374 488.605 308.534 480.661 311.068 473.394C313.609 466.116 321.554 462.282 328.825 464.817Z" fill="#F25735"/>
<path d="M431.454 544.762C434.707 545.901 436.431 549.452 435.295 552.707C434.159 555.962 430.601 557.68 427.342 556.552C424.089 555.413 422.372 551.851 423.507 548.596C424.643 545.341 428.201 543.623 431.454 544.762Z" fill="#F25735"/>
<path d="M526.051 484.185C542.032 493.58 552.934 517.642 537.179 532.394C526.096 542.038 508.555 539.778 502.396 527.015C496.535 513.393 497.036 498.132 501.83 484.38C504.793 478.655 512.314 476.454 518.268 479.876C520.736 480.885 523.35 482.348 526.051 484.185Z" fill="#F25735"/>
<path d="M506.36 559.726C512.362 561.821 515.534 568.379 513.436 574.389C511.345 580.387 504.781 583.556 498.779 581.461C492.769 579.377 489.604 572.807 491.695 566.809C493.792 560.8 500.357 557.631 506.36 559.726Z" fill="#F25735"/>
<path d="M645.821 363.316C652.117 366.043 659.26 370.46 659.437 378.244C659.579 388.903 649.358 398.845 638.74 396.101C628.975 393.667 617.531 387.752 616.835 375.926C617.256 366.424 628.252 362.549 637.264 362.118C640.159 362.08 643.067 362.465 645.821 363.316Z" fill="#F25735"/>
<path d="M643.194 299.354C646.316 300.448 647.965 303.863 646.881 306.979C645.79 310.105 642.375 311.752 639.246 310.669C636.125 309.575 634.475 306.159 635.566 303.032C636.652 299.918 640.073 298.259 643.194 299.354Z" fill="#F25735"/>
<path d="M598.55 277.935C601.556 278.978 603.137 282.262 602.092 285.261C601.041 288.272 597.758 289.857 594.76 288.803C591.756 287.762 590.173 284.477 591.218 281.477C592.271 278.467 595.552 276.882 598.55 277.935Z" fill="#F25735"/>
<path d="M623.323 217.059C628.063 218.718 630.568 223.906 628.914 228.648C627.26 233.389 622.075 235.891 617.334 234.232C612.586 232.584 610.082 227.397 611.735 222.655C613.389 217.914 618.582 215.4 623.323 217.059Z" fill="#F25735"/>
<path d="M559.805 185.345C564.529 186.995 567.024 192.161 565.375 196.89C563.731 201.606 558.563 204.104 553.838 202.453C549.114 200.804 546.619 195.637 548.262 190.92C549.912 186.192 555.08 183.694 559.805 185.345Z" fill="#F25735"/>
<path d="M327.589 57.4486C332.042 59.0032 334.393 63.8713 332.837 68.3303C331.287 72.7778 326.413 75.1368 321.96 73.5822C317.508 72.0277 315.156 67.1596 316.713 62.7006C318.261 58.2524 323.136 55.8941 327.589 57.4486Z" fill="#F25735"/>
<path d="M122.67 463.419C131.138 463.32 141.721 468.937 140.738 477.284C140.5 494.559 121.562 510.137 104.058 505.004C98.0402 502.9 94.3801 496.799 91.8805 490.137C88.0359 476.263 100.017 464.042 112.408 463.468C115.676 462.983 119.15 462.942 122.67 463.419Z" fill="#F25735"/>
<path d="M748.944 501.944C754.332 505.624 765.546 512.868 761.147 516.487C750.773 525.123 729.833 510.725 720.376 499.106C718.733 496.618 720.733 493.154 723.709 493.333C731.149 493.779 737.256 496.535 743.809 499.318C745.598 500.166 747.337 501.047 748.944 501.944Z" fill="#F25735"/>
<path d="M736.281 346.862C741.203 349.704 742.89 356.004 740.05 360.923C737.21 365.842 730.91 367.532 725.987 364.69C721.066 361.849 719.383 355.55 722.223 350.631C725.063 345.712 731.359 344.02 736.281 346.862Z" fill="#F25735"/>
<path d="M594.487 512.38C598.87 514.91 600.375 520.506 597.841 524.894C595.315 529.27 589.71 530.776 585.328 528.246C580.945 525.716 579.446 520.108 581.972 515.732C584.506 511.344 590.105 509.85 594.487 512.38Z" fill="#F25735"/>
<path d="M675.177 570.113C680.488 573.18 682.315 579.962 679.249 585.273C676.182 590.585 669.388 592.405 664.077 589.339C658.765 586.272 656.956 579.485 660.023 574.173C663.09 568.862 669.865 567.046 675.177 570.113Z" fill="#F25735"/>
</svg>
