<svg width="541" height="592" viewBox="0 0 541 592" fill="none" xmlns="http://www.w3.org/2000/svg">
<path d="M528.987 347.046C520.613 344.264 512.237 341.484 503.862 338.698C499.421 336.31 495.273 333.465 491.753 329.828C483.847 321.656 481.354 310.136 483.99 299.21C485.214 294.14 487.673 289.346 491.115 285.428C492.891 283.406 495.071 281.817 497.238 280.22C499.197 279.232 501.075 278.137 502.545 276.537C503.523 275.472 504.218 274.266 504.686 272.994C510.511 263.468 503.674 250.816 492.766 249.637C491.104 249.457 489.165 249.581 487.173 249.698C486.586 248.948 486.035 248.174 485.567 247.346C481.679 240.465 482.471 232.515 486.375 226.52C489.173 224.373 492.251 222.571 495.489 221.232C499.487 219.576 503.719 218.713 507.861 217.508C515.814 215.192 523.919 210.414 524.475 201.225C525.021 192.225 518.717 184.193 510.278 181.614C500.768 178.708 491.47 182.112 483.286 186.929C482.846 186.718 482.403 186.512 481.983 186.246C477.738 183.557 477.381 179.997 478.41 175.454C478.438 175.33 478.464 175.206 478.49 175.082C478.532 175.034 478.559 174.977 478.601 174.929C479.387 174.034 479.621 172.516 479.173 171.336C479.563 168.258 479.366 165.217 477.367 162.474C475.039 159.28 471.018 157.82 467.199 157.56C462.665 157.249 458.437 158.594 453.959 158.914C451.514 159.088 449.688 158.617 448.266 157.618C448.122 157.432 447.983 157.238 447.838 157.052C444.706 150.281 448.463 140.609 451.798 134.873C464.683 112.703 487.185 98.3825 502.097 77.8025C509.55 67.5158 515.522 54.8825 513.877 41.8519C512.579 31.5785 505.531 21.5545 495.814 17.6225C485.977 13.6425 475.57 17.0931 468.891 25.0425C461.939 33.3158 459.217 44.1439 455.959 54.1959C451.654 67.4772 446.269 80.5318 439.61 92.8131C434.356 102.506 427.299 112.688 416.515 116.642C408.765 119.484 398.543 116.968 393.522 110.213C386.059 100.172 397.702 90.2505 402.713 82.1931C406.35 76.3425 408.529 68.0412 405.905 61.7425C405.22 59.0492 403.95 56.4785 401.934 54.1852C395.414 46.7678 385.533 48.2838 378.827 54.5452C371.326 61.5492 367.283 71.5518 363.665 80.9171C362.975 82.7025 362.118 84.8345 360.911 86.5558C356.471 87.0345 351.91 85.2172 349.225 81.4998C348.627 75.1518 348.534 68.7598 349.067 62.4052C349.535 56.8385 351.073 50.4345 347.169 45.6812C340.894 38.0438 328.265 42.1745 323.489 49.3705C319.705 55.0705 319.409 62.2012 318.925 68.7985C318.53 74.1665 317.712 79.1772 315.477 84.0118C312.729 86.9785 309.083 89.2718 305.245 90.7118C303.75 91.2718 302.154 91.7798 300.509 92.2038C296.63 92.3838 292.763 92.7278 288.906 93.1585C285.018 92.6465 281.409 91.1011 278.677 87.9291C272.261 80.4771 272.379 70.0665 273.411 60.8611C273.697 58.3171 273.983 55.7865 274.251 53.2598C274.901 49.0545 275.637 44.8878 276.414 40.7932C277.902 32.9452 280.549 24.6625 278.997 16.6212C277.759 10.2145 274.078 3.92653 267.693 1.56653C261.861 -0.588138 255.183 1.00114 250.331 4.70514C244.451 9.19314 241.699 16.3691 241.358 23.5945C241.249 25.8998 241.377 28.1665 241.659 30.4092C241.453 32.7612 241.33 35.0825 241.265 37.3038C240.954 47.8945 243.065 57.7972 245.681 67.9825C248.205 77.8078 249.561 87.8638 244.062 96.6531C243.637 96.9585 243.237 97.2838 242.774 97.5598C232.577 103.665 219.373 99.5945 210.452 93.1638C206.844 90.5625 203.57 87.5465 200.446 84.3838C199.557 80.0438 198.517 75.5225 195.467 72.1439C192.249 68.5785 187.459 67.1905 182.845 68.5625C178.402 69.8825 174.713 73.5825 172.788 77.7225C170.478 82.6891 171.026 88.3665 172.89 93.3838C174.08 96.5852 175.927 99.5358 177.934 102.424C178.79 108.81 177.372 115.558 173.881 120.933C170.777 125.71 166.214 128.87 161.096 130.49C157.589 130.173 154.09 129.165 150.778 127.6C141.013 122.985 134.498 114.828 128.312 106.3C123.065 99.0692 116.41 90.2905 106.99 88.7051C98.3609 87.2531 90.8288 92.8385 88.2848 100.901C85.5635 109.526 88.0942 118.336 93.7168 125.201C100.046 132.931 108.786 138.04 116.47 144.253C118.081 145.556 119.668 146.917 121.213 148.326C121.569 148.936 121.965 149.52 122.309 150.136C126.34 157.344 131.224 167.386 126.521 175.388C124.928 178.101 122.244 180.421 119.064 180.706C109.61 176.074 101.537 167.156 90.0715 169.526C88.5528 169.841 87.3209 170.784 86.9662 172.335C81.0102 176.633 79.6169 185.377 82.8689 191.757C83.5555 193.106 84.4288 194.31 85.3782 195.446C87.1195 198.377 89.6675 200.906 92.5755 202.93C98.8449 207.293 106.965 209.598 112.172 215.382C112.601 215.861 112.968 216.358 113.305 216.864C114.116 219.574 114.502 222.456 114.585 225.225C114.616 226.261 114.604 227.324 114.552 228.393C113.733 230.908 112.334 233.308 110.566 235.348C103.286 243.748 91.3888 246.061 80.3208 245.865C79.0382 245.673 77.7742 245.485 76.5649 245.317C71.7702 244.655 66.9595 244.143 62.1382 243.761C47.4102 241.233 31.6195 238.133 17.9008 244.46C17.2822 244.745 16.6875 245.061 16.1035 245.389C12.2675 246.585 8.64086 248.394 5.73019 251.189C0.928858 255.8 -0.665799 262.93 1.8982 269.114C7.19287 281.884 22.3982 285.484 34.8715 284.472C48.1768 283.392 60.6729 278.025 73.4262 274.514C84.2515 271.534 99.0155 269.064 108.135 277.601C110.658 279.962 113.077 283.625 112.625 287.246C112.141 291.116 108.085 292.753 105.046 294.336C101.324 296.276 97.8648 298.628 96.0622 302.586C94.4608 306.104 94.8582 310.133 97.5608 312.98C100.538 316.116 105.266 317.373 110.068 317.612C110.829 317.985 111.602 318.346 112.384 318.701C114.044 319.454 115.712 320.286 116.772 321.686C117.481 325.093 117.256 328.944 116.768 332.488C113.59 336.388 109.954 339.889 106.101 342.786C86.8075 357.297 60.8449 359.025 37.9315 363.397C27.1449 365.454 14.5262 367.296 6.27552 375.242C-1.62715 382.853 -0.36717 394.844 8.31816 401.296C18.2102 408.644 30.8915 405.57 41.0649 400.508C51.6529 395.238 61.0795 388.105 70.4595 380.978C80.6888 373.206 91.6448 365.34 103.526 360.545C117.198 357.748 131.372 358.941 143.065 367.772C143.62 368.192 144.14 368.652 144.672 369.097C147.933 374.554 151.482 379.828 155.264 384.933C156.82 391.217 157.346 397.8 155.726 404.101C153.466 412.897 146.326 417.682 139.685 423.094C133.244 428.344 127.109 435.21 127.114 444.004C127.118 450.624 131.57 456.461 137.349 459.35C143.425 462.388 150.467 461.578 155.783 457.405C161.242 453.12 164.168 446.732 168.425 441.417C179.138 428.044 197.837 432.369 209.551 441.842C209.909 442.132 210.252 442.442 210.604 442.738C214.338 455.277 213.817 468.725 211.006 481.99C208.096 489.71 205.14 497.414 202.418 505.204C200.596 510.42 198.867 515.685 197.311 521C196.983 521.714 196.654 522.428 196.324 523.132C195.934 523.962 195.886 524.742 196.061 525.433C196.007 525.626 195.962 525.822 195.91 526.017C188.852 540.541 179.207 560.197 186.101 575.716C187.295 581.088 190.169 585.842 195.723 588.753C196.991 589.418 198.357 589.814 199.75 590.018C200.906 590.669 202.166 591.161 203.55 591.41C208.281 592.261 212.678 590.073 215.997 586.849C224.005 579.066 226.311 566.496 228.542 556.029C233.75 531.605 234.386 505.921 242.917 482.281C246.417 478.008 250.431 474.214 254.97 471.136C262.357 466.126 274.05 463.585 280.909 471.038C284.295 474.718 285.27 480.004 287.491 484.36C289.562 488.422 292.773 492.256 297.184 493.833C306.477 497.157 313.334 488.602 314.405 480.176C315.097 474.73 313.695 468.748 315.893 463.565C317.235 460.394 320.051 458.234 323.211 457.046C330.854 454.17 338.969 456.616 344.729 462.077C351.625 468.617 354.993 478.206 357.572 487.114C362.878 505.441 367.947 527.316 388.847 533.345C397.354 535.797 406.595 533.721 412.553 526.985C418.17 520.632 419.838 511.422 418.824 503.204C416.281 482.618 397.231 470.476 388.619 452.854C388.015 451.621 387.473 450.36 386.975 449.085C386.807 448.453 386.626 447.825 386.493 447.184C385.703 443.412 385.603 439.601 386.413 435.826C386.843 433.813 387.461 431.026 389.031 429.596C389.039 429.589 389.049 429.586 389.055 429.58C389.617 429.746 390.209 429.982 390.817 430.229C400.359 434.112 407.712 440.97 413.218 449.562C413.724 450.35 414.259 451.158 414.814 451.968C414.946 452.242 415.109 452.516 415.34 452.786C415.409 452.866 415.483 452.944 415.551 453.024C420.446 459.897 427.158 466.541 436.311 464.136C437.453 463.836 438.478 463.404 439.399 462.868C444.231 461.182 447.995 457.122 448.583 451.674C448.929 448.486 448.359 445.546 447.191 442.844C446.603 440.38 445.494 437.992 443.922 435.864C439.482 429.857 432.722 426.001 428.775 419.59C426.474 415.853 425.211 411.516 424.947 407.122C424.971 406.976 424.977 406.83 425.003 406.684C425.857 402.068 429.063 399.238 433.121 398.032C435.466 398.602 437.745 399.341 439.815 400.136C445.542 402.33 451.09 404.933 456.55 407.717C466.539 416.054 474.491 427.285 481.875 437.646C488.133 446.428 494.422 455.917 502.618 463.041C509.587 469.097 520.765 472.852 528.751 466.305C535.791 460.536 535.661 450.296 532.381 442.521C528.775 433.976 521.379 427.332 513.901 422.157C502.034 413.945 487.365 407.71 477.159 397.217C477.159 397.217 475.337 393.902 473.825 393.376C471.961 391.001 470.295 388.441 468.943 385.59C468.69 385.057 468.453 384.514 468.226 383.964C468.09 382.013 468.191 380.026 468.618 378.012C470.517 369.048 478.803 364.797 487.206 363.588C491.09 363.029 495.045 362.936 498.986 363.216C502.518 364.592 505.885 365.872 508.931 366.761C517.671 369.31 529.468 371.401 536.801 364.46C539.678 361.736 540.922 357.801 539.275 354.061C537.435 349.882 532.987 348.376 528.987 347.046Z" fill="#EB70A7"/>
</svg>
