<svg width="924" height="959" viewBox="0 0 924 959" fill="none" xmlns="http://www.w3.org/2000/svg">
<path d="M435.629 718.278C440.865 707.45 441.562 687.539 452.432 687.36C468.016 686.897 479.245 708.458 486.299 724.142C487.312 726.646 488.125 729.301 488.814 732.012C489.046 732.915 489.261 733.825 489.467 734.735C491.426 738.004 490.653 740.889 491.323 744.16C484.366 770.124 469.424 797.041 484.593 821.204C491.598 835.449 510.247 846.63 525.651 835.297C544.327 823.295 550.511 800.216 542.167 779.428C534.106 763.354 522.774 747.95 525.326 729.585C525.488 728.478 525.671 727.352 525.876 726.216C529.564 705.748 540.296 681.292 562.692 683.464C567.06 684.634 571.095 689.226 575.297 692.107C579.499 694.987 583.866 696.158 588.897 690.485C597.505 676.76 600.032 655.792 613.117 653.115C628.032 649.381 634.933 669.782 648.105 679.692C650.347 681.706 652.592 683.869 654.819 686.09C657.046 688.312 659.256 690.592 661.427 692.842C670.111 701.843 678.676 710.641 687.748 714.632C694.007 717.479 702.488 718.581 709.761 716.765C717.034 714.949 723.098 710.216 724.521 701.392C724.675 700.523 724.774 699.639 724.815 698.742C724.553 692.05 721.867 685.1 717.946 678.937C715.182 674.962 711.479 671.535 707.31 668.41C705.914 667.369 704.459 666.361 702.967 665.378C702.22 664.888 701.47 664.419 700.714 663.957C690.027 658.587 678.388 653.193 667.456 646.599C666.462 645.999 665.474 645.391 664.499 644.782C661.326 642.5 657.567 640.089 653.789 637.689C650.107 635.176 646.016 632.015 642.625 627.845C632.594 615.045 631.566 590.034 643.982 584.084C658.227 577.079 670.125 601.912 688.104 609.821C690.989 610.594 695.316 611.753 698.144 611.695C699.261 611.722 700.624 611.939 701.823 612.005C718.621 612.925 732.516 608.871 738.051 590.738C738.922 587.488 739.131 584.276 738.775 581.151C738.657 580.108 738.476 579.075 738.237 578.053C737.963 576.94 737.637 575.86 737.264 574.812C736.89 573.766 736.471 572.789 736.008 571.847C731.991 565.828 726.294 560.71 719.711 556.802C718.772 556.246 717.826 555.724 716.866 555.228C699.34 544.807 679.325 550.266 661.139 554.67C684.916 540.942 707.74 519.23 738.464 521.458C739.56 521.492 740.657 521.548 741.755 521.622C758.228 522.754 774.917 528.546 791.015 538.804C792.099 539.152 793.17 539.465 794.289 539.78C808.852 543.886 822.135 542.152 831.535 524.573C842.781 505.04 827.391 481.293 805.578 478.638C804.955 478.562 804.327 478.504 803.694 478.462C794.821 479.862 784.145 482.075 773.365 483.358C772.167 483.501 770.968 483.631 769.77 483.749C750.295 487.344 726.443 484.045 720.984 464.03C716.581 445.845 743.422 443.76 757.28 438.198C764.596 433.974 771.912 429.75 774.164 421.627C774.547 420.598 774.859 419.508 775.092 418.355C775.558 416.048 775.709 413.482 775.494 410.612C774.418 396.27 764.943 391.815 753.528 389.395C752.387 389.152 751.228 388.93 750.056 388.718C737.142 386.421 719.059 384.668 711.886 369.621C711.561 368.589 711.346 367.568 711.234 366.56C709.323 349.394 737.027 335.559 756.207 332.984C757.417 332.736 758.627 332.489 759.832 332.255C763.445 331.553 766.988 331.003 770.35 330.574C770.985 330.435 771.623 330.282 772.262 330.128C804.122 322.633 836.134 311.035 825.985 279.622C813.938 245.968 763.945 284.055 746.004 307.338C743.671 310.223 740.656 312.739 737.224 314.788C734.544 316.481 731.396 317.941 728.003 319.088C724.608 320.235 720.972 321.054 717.31 321.48C710.192 322.324 701.817 323.404 694.207 323.019C690.403 322.819 686.786 322.268 683.612 321.139C677.807 319.552 674.598 315.57 673.786 311.178C672.944 306.763 674.548 301.952 678.366 298.645C680.244 295.485 682.809 292.106 684.851 288.665C686.892 285.223 688.589 281.689 689.265 278.098C690.32 274.871 691.464 271.653 692.423 268.431C694.345 261.974 695.533 255.49 693.792 248.885C692.779 243.93 687.4 237.804 679.339 233.263C674.355 231.959 669.361 232.537 664.392 233.865C663.322 234.073 662.267 234.347 661.22 234.7C660.175 235.039 659.144 235.443 658.119 235.91C651.61 238.279 645.736 242.889 640.595 247.293C639.654 247.968 638.717 248.614 637.785 249.23C634.981 251.092 632.193 252.694 629.391 253.722C628.454 254.074 627.519 254.349 626.582 254.546C625.211 254.719 623.945 254.752 622.783 254.641C621.618 254.545 620.551 254.322 619.578 253.983C609.371 246.734 606.958 231.771 610.882 220.13C611.236 219.081 611.646 218.047 612.106 217.057C630.311 190.829 679.307 163.761 645.102 129.86C631.554 116.954 609.531 112.599 598.067 126.533C579.957 147.963 588.867 178.178 575.067 200.423C574.471 201.36 573.843 202.274 573.178 203.163C569.456 208.149 564.628 212.328 558.217 215.31C557.3 215.744 556.354 216.14 555.409 216.505C546.877 219.492 535.234 222.556 532.839 214.184C531.114 209.084 537.374 203.031 540.337 197.564C540.738 196.697 541.113 195.808 541.503 194.861C545.832 184.364 546.022 172.032 538.803 161.332C538.155 160.385 537.465 159.473 536.73 158.581C528.646 148.762 516.27 142.493 502.811 147.39C489.381 152.928 484.79 162.427 484.795 173.312C484.797 174.395 484.837 175.395 484.921 176.392C483.23 191.615 507.828 215.212 493.017 212.79C477.15 208.538 452.911 206.681 442.14 188.722C441.472 187.831 440.836 186.919 440.227 185.982C434.127 176.696 430.724 165.843 428.059 155.188C423.476 126.132 429.764 96.8966 415.845 70.518C415.337 69.6248 414.805 68.7398 414.237 67.892C409.728 60.9944 403.311 55.3168 394.184 51.3254C393.172 51.1781 392.149 51.0584 391.108 50.9963C386.954 50.7179 382.615 51.132 378.354 52.2011C374.678 53.6742 371.097 55.6054 367.879 57.9592C367.075 58.5476 366.291 59.1727 365.539 59.8056C360.221 66.1573 357.253 72.9066 356.101 79.88C355.938 80.8718 355.81 81.8735 355.721 82.8701C352.96 119.374 384.936 142.412 399.626 171.857C400.133 172.874 400.617 173.901 401.08 174.937C410.797 190.759 408.451 222.596 386.041 219.684C365.46 215.715 354.052 183.284 329.22 195.182C309.488 205.355 313.787 229.697 314.919 248.553C314.043 257.592 313.166 266.634 307.517 274.235C306.759 275.114 305.931 275.964 305.029 276.781C304.127 277.597 303.149 278.38 302.089 279.126C295.332 283.262 289.378 285.04 284.084 285.035C283.025 285.034 281.993 284.962 280.986 284.822C280.141 284.765 279.328 284.646 278.54 284.474C275.918 284.481 273.42 282.266 270.921 280.05C251.707 259.442 263.405 210.014 223.093 216.218C198.751 220.517 192.36 255.908 209.076 274.301C223.679 289.036 245.42 288.677 259.259 304.928C259.976 305.763 260.679 306.632 261.362 307.532C261.783 307.993 262.206 308.452 262.628 308.912C271.518 318.571 280.796 328.303 276.815 338.832C273.336 351.814 249.484 348.514 234.627 345.671C230.092 345.461 225.095 344.997 220.758 345.837C216.434 346.69 212.427 348.541 209.073 352.324C207.103 355.307 206.079 359.128 206.147 363.242C206.17 364.613 206.314 366.017 206.584 367.434C206.719 368.141 206.887 368.853 207.086 369.564C207.805 371.359 208.474 374.63 209.53 376.459C219.91 383.878 234.052 383.03 242.217 392.947C258.546 412.783 228.51 432.563 211.483 432.639C189.743 432.997 174.187 410.277 152.06 412.078C131.376 414.266 117.207 438.297 121.223 457.926C124.57 474.283 138.505 485.746 155.145 487.113C179.77 487.527 196.437 465.711 216.452 460.252C239.739 454.124 236.515 495.002 224.33 510.043C223.696 510.716 223.042 511.371 222.37 512.009C208.435 520.666 195.019 535.795 203.597 547.456C205.075 549.217 206.714 550.745 208.478 552.08C209.359 552.748 210.271 553.368 211.211 553.944C229.22 562.618 256.833 557.649 265.564 576.994C279.47 611.64 223.498 601.281 201.551 613.952C186.533 623.842 184.393 643.367 192.841 657.998C200.232 670.801 215.326 677.937 229.571 670.932C237.335 666.825 242.942 660.381 247.983 653.562C248.705 652.588 249.413 651.606 250.116 650.622C259.531 634.126 279.47 611.64 295.517 626.762C306.566 637.453 296.055 659.372 306.048 668.234C326.705 689.229 375.134 652.734 388.241 692.159C388.469 693.12 388.655 694.101 388.799 695.096C389.518 700.071 389.194 705.429 387.948 710.804C387.981 711.721 388.028 712.647 388.089 713.574C388.274 716.36 388.594 719.16 389.164 721.946C392.864 729.961 401.161 733.939 410.034 733.942C414.472 733.961 419.07 733.044 423.293 731.103C427.513 729.164 431.409 726.013 434.589 720.924C434.938 720.113 435.286 719.231 435.629 718.278Z" fill="#FFFF00"/>
<path d="M580.809 738.622C584.751 724.36 604.096 715.63 616.588 726.707C625.139 735.182 628.873 750.097 620.011 760.09C615.58 765.087 608.651 767.869 602.495 767.765C593.453 766.888 588.457 762.458 583.165 755.687C580.292 750.709 579.278 744.628 580.809 738.622Z" fill="#FFFF00"/>
<path d="M588.953 907.408C591.026 899.672 598.978 895.081 606.715 897.154C614.451 899.227 619.042 907.179 616.969 914.915C614.896 922.652 606.944 927.242 599.208 925.169C591.471 923.096 586.88 915.146 588.953 907.408Z" fill="#FFFF00"/>
<path d="M673.508 835.542C663.898 821.322 664.595 801.411 672.118 784.875C675.493 778.049 684.921 777.483 690.304 780.471C717.994 792.529 731.9 827.175 721.672 853.809C715.205 872.174 689.627 863.775 681.153 849.884C678.267 845.872 675.669 841.071 673.508 835.542Z" fill="#FFFF00"/>
<path d="M329.425 791.345C330.564 787.095 334.933 784.572 339.184 785.711C343.434 786.849 345.956 791.219 344.817 795.47C343.678 799.721 339.309 802.242 335.06 801.103C330.809 799.964 328.286 795.596 329.425 791.345Z" fill="#FFFF00"/>
<path d="M105.305 557.985C108.413 551.892 111.788 545.066 118.717 542.285C129.304 537.392 143.342 542.699 148.235 553.286C154.185 565.702 149.264 578.298 138.29 584.634C127.703 589.527 112.892 587.104 107.503 575.078C104.623 570.092 103.661 564.001 105.305 557.985Z" fill="#FFFF00"/>
<path d="M102.058 681.196C103.74 678.958 104.899 674.631 107.115 672.133C115.204 665.024 128.572 667.06 133.852 676.205C140.187 687.178 135.266 699.774 123.623 702.838C115.252 705.233 108.426 701.858 103.754 694.558C101.507 690.66 100.762 685.9 102.058 681.196Z" fill="#FFFF00"/>
<path d="M810.87 417.92C812.709 411.056 819.765 406.982 826.63 408.821C833.495 410.661 837.568 417.717 835.729 424.581C833.889 431.446 826.834 435.52 819.969 433.681C813.104 431.841 809.03 424.785 810.87 417.92Z" fill="#FFFF00"/>
<path d="M863.111 222.953C866.582 209.999 879.892 202.311 892.84 205.78C905.789 209.25 913.472 222.564 910.001 235.517C903.037 257.722 871.662 270.959 853.117 253.622C849.563 249.578 848.224 243.035 851.115 238.12C852.594 234.883 855.42 230.569 863.111 222.953Z" fill="#FFFF00"/>
<path d="M729.872 223.026C731.341 217.545 736.987 214.28 742.478 215.752C747.971 217.224 751.228 222.873 749.759 228.355C748.287 233.851 742.641 237.115 737.148 235.643C731.657 234.172 728.4 228.522 729.872 223.026Z" fill="#FFFF00"/>
<path d="M520.173 110.253C521.61 104.888 527.121 101.71 532.484 103.147C537.846 104.584 541.031 110.091 539.594 115.457C538.156 120.823 532.644 124 527.282 122.563C521.919 121.126 518.735 115.619 520.173 110.253Z" fill="#FFFF00"/>
<path d="M269.625 116.23C272.482 101.133 287.113 92.6859 301.255 91.837C327.322 92.6378 340.173 125.455 325.334 146.215C317.915 156.595 305.499 162.545 292.903 157.624C280.308 152.703 268.872 143.454 269.271 128.735C268.567 124.558 268.645 120.311 269.625 116.23Z" fill="#FFFF00"/>
<path d="M170.217 305.161C176.824 296.579 192.691 300.831 193.643 308.816C194.595 316.801 188.053 318.14 180.818 316.16C173.878 314.22 169.134 309.297 170.217 305.161Z" fill="#FFFF00"/>
<path d="M113.752 344.602C115.219 339.012 120.959 335.725 126.582 337.271C132.204 338.816 135.6 344.622 134.153 350.229C132.708 355.838 126.946 359.106 121.301 357.544C115.658 355.981 112.284 350.193 113.752 344.602Z" fill="#FFFF00"/>
<path d="M301.217 707.441C302.474 702.75 307.296 699.967 311.987 701.224C316.678 702.48 319.461 707.302 318.204 711.992C316.948 716.683 312.126 719.468 307.435 718.211C302.744 716.954 299.96 712.131 301.217 707.441Z" fill="#FFFF00"/>
<path d="M406.466 772.055C407.723 767.364 412.544 764.581 417.235 765.838C421.926 767.095 424.709 771.916 423.452 776.607C422.195 781.297 417.374 784.082 412.683 782.825C407.992 781.569 405.209 776.746 406.466 772.055Z" fill="#FFFF00"/>
<path d="M754.823 649.319C759.736 636.745 772.925 627.911 786.576 634.661C795.9 640.251 799.351 650.452 798.088 660.935C795.769 669.59 789.509 675.643 781.138 678.038C771.323 680.046 760.17 675.511 757.179 665.788C754.408 660.981 753.403 655.109 754.823 649.319Z" fill="#FFFF00"/>
<path d="M190.996 785.07C192.315 775.354 199.348 766.417 209.549 762.966C221.578 758.459 234.947 760.495 244.94 769.357C250.993 775.617 251.945 783.602 252.898 791.587C251.531 808.227 240.067 822.162 222.654 823.68C205.242 825.198 191.694 812.292 190.079 796.992C189.593 793.129 189.861 789.09 190.996 785.07Z" fill="#FFFF00"/>
</svg>
